{"title":"Match of the Day - 24th May 2015 - hdtv x264","uid":11959228,"size":1081803676,"categoryP":"video","categoryS":"tv_shows","magnet":"?xt=urn:btih:ed6beae48848a0109faa615a3ce8226e47b505cb&amp;dn=Match+of+the+Day+-+24th+May+2015+-+hdtv+x264&amp;tr=udp%3A%2F%2Ftracker.openbittorrent.com%3A80&amp;tr=udp%3A%2F%2Fopen.demonii.com%3A1337&amp;tr=udp%3A%2F%2Ftracker.coppersurfer.tk%3A6969&amp;tr=udp%3A%2F%2Fexodus.desync.com%3A6969","seeders":1,"leechers":0,"uploader":"rugbybill","files":3,"time":1432516763,"description":"SPORT: Match of the Day\nOn: BBC 1 HD   \nDate: Sunday 24th May 2015 \nTime: 22:30 to 00:10 (100 minutes) \n\nHighlights from the final day of the Premier League season, presented by Gary Lineker. Leicester City and Queens Park Rangers, both of whom have spent most of the season battling against relegation, meet at the King Power Stadium, while Aston Villa host Burnley in another game between two bottom-half sides. All eyes will be on Steven Gerrard in Liverpool's match at Stoke, with the Reds captain set to play his final game for the club before departing to join Los Angeles Galaxy. In London, Chelsea play Sunderland, Arsenal take on West Brom and Crystal Palace meet Swansea. Elsewhere, Tottenham travel to Everton, Hull play Manchester United, Manchester City face Southampton and Newcastle take on West Ham.\n\nThe studio experts are Alan Shearer and Danny Murphy.\n\nRunning sequence: \n\nHull v Man Utd\nNewcastle v West Ham\nStoke v Liverpool\nArsenal v West Brom\nChelsea v Sunderland\nLeicester v QPR\nMan City v Southampton\nPalace v Swansea\nEverton v Spurs\nVilla v Burnley\n\n\nGeneral\nComplete name                            : 2015.05.24.MOTD.hdtv.x264.mp4\nFormat                                   : MPEG-4\nFormat profile                           : Base Media / Version 2\nCodec ID                                 : mp42\nFile size                                : 1.01 GiB\nDuration                                 : 1h 40mn\nOverall bit rate mode                    : Variable\nOverall bit rate                         : 1 433 Kbps\nWriting application                      : #YGFD                     \n\nVideo\nID                                       : 1\nFormat                                   : AVC\nFormat/Info                              : Advanced Video Codec\nFormat profile                           : &lt;a class=&quot;__cf_email__&quot; href=&quot;/cdn-cgi/l/email-protection&quot; data-cfemail=&quot;eca4858b84aca0dfc2dc&quot;&gt;[email&amp;#160;protected]&lt;/a&gt;&lt;script data-cfhash='f9e31' type=&quot;text/javascript&quot;&gt;\n/* &lt;![CDATA[ */!function(){try{var t=&quot;currentScript&quot;in document?document.currentScript:function(){for(var t=document.getElementsByTagName(&quot;script&quot;),e=t.length;e--;)if(t[e].getAttribute(&quot;data-cfhash&quot;))return t[e]}();if(t&amp;&amp;t.previousSibling){var e,r,n,i,c=t.previousSibling,a=c.getAttribute(&quot;data-cfemail&quot;);if(a){for(e=&quot;&quot;,r=parseInt(a.substr(0,2),16),n=2;a.length-n;n+=2)i=parseInt(a.substr(n,2),16)^r,e+=String.fromCharCode(i);e=document.createTextNode(e),c.parentNode.replaceChild(e,c)}t.parentNode.removeChild(t);}}catch(u){}}()/* ]]&gt; */&lt;/script&gt;\nFormat settings, CABAC                   : Yes\nFormat settings, ReFrames                : 4 frames\nCodec ID                                 : avc1\nCodec ID/Info                            : Advanced Video Coding\nDuration                                 : 1h 40mn\nBit rate                                 : 1 300 Kbps\nWidth                                    : 704 pixels\nHeight                                   : 400 pixels\nDisplay aspect ratio                     : 16:9\nFrame rate mode                          : Constant\nFrame rate                               : 25.000 fps\nColor space                              : YUV\nChroma subsampling                       : 4:2:0\nBit depth                                : 8 bits\nScan type                                : Progressive\nBits/(Pixel*Frame)                       : 0.185\nStream size                              : 936 MiB (91%)\nWriting library                          : x264 core 130 r2273 b3065e6\nEncoding settings                        : cabac=1 / ref=3 / deblock=1:0:0 / analyse=0x3:0x113 / me=hex / subme=7 / psy=1 / psy_rd=1.00:0.00 / mixed_ref=1 / me_range=16 / chroma_me=1 / trellis=1 / 8x8dct=1 / cqm=0 / deadzone=21,11 / fast_pskip=1 / chroma_qp_offset=-2 / threads=6 / lookahead_threads=1 / sliced_threads=0 / nr=0 / decimate=1 / interlaced=0 / bluray_compat=0 / constrained_intra=0 / bframes=3 / b_pyramid=2 / b_adapt=1 / b_bias=0 / direct=1 / weightb=1 / open_gop=0 / weightp=2 / keyint=250 / keyint_min=25 / scenecut=40 / intra_refresh=0 / rc_lookahead=40 / rc=abr / mbtree=1 / bitrate=1300 / ratetol=1.0 / qcomp=0.60 / qpmin=0 / qpmax=69 / qpstep=4 / vbv_maxrate=12500 / vbv_bufsize=12500 / nal_hrd=none / ip_ratio=1.40 / aq=1:1.00\n\nAudio\nID                                       : 2\nFormat                                   : AAC\nFormat/Info                              : Advanced Audio Codec\nFormat profile                           : LC\nCodec ID                                 : 40\nDuration                                 : 1h 40mn\nBit rate mode                            : Variable\nBit rate                                 : 128 Kbps\nMaximum bit rate                         : 262 Kbps\nChannel(s)                               : 2 channels\nChannel positions                        : Front: L R\nSampling rate                            : 48.0 KHz\nCompression mode                         : Lossy\nStream size                              : 92.1 MiB (9%)\nTitle                                    : Stereo\nLanguage                                 : English","torrent":{"xt":"urn:btih:ed6beae48848a0109faa615a3ce8226e47b505cb","amp;dn":"Match+of+the+Day+-+24th+May+2015+-+hdtv+x264","amp;tr":["udp%3A%2F%2Ftracker.openbittorrent.com%3A80","udp%3A%2F%2Fopen.demonii.com%3A1337","udp%3A%2F%2Ftracker.coppersurfer.tk%3A6969","udp%3A%2F%2Fexodus.desync.com%3A6969"],"infoHash":"ed6beae48848a0109faa615a3ce8226e47b505cb","infoHashBuffer":{"type":"Buffer","data":[237,107,234,228,136,72,160,16,159,170,97,90,60,232,34,110,71,181,5,203]},"announce":[],"urlList":[]}}